<!DOCTYPE svg PUBLIC "-//W3C//DTD SVG 1.1//EN" "http://www.w3.org/Graphics/SVG/1.1/DTD/svg11.dtd">
<!-- Uploaded to: SVG Repo, www.svgrepo.com, Transformed by: SVG Repo Mixer Tools -->
<svg height="100px" width="100px" version="1.1" id="Layer_1" xmlns="http://www.w3.org/2000/svg" xmlns:xlink="http://www.w3.org/1999/xlink" viewBox="-47.1 -47.1 486.73 486.73" xml:space="preserve" fill="#000000" transform="rotate(0)">
<g id="SVGRepo_bgCarrier" stroke-width="0" transform="translate(15.701319999999981,15.701319999999981), scale(0.92)">
<rect x="-47.1" y="-47.1" width="486.73" height="486.73" rx="38.9384" fill="#77cafd" strokewidth="0"/>
</g>
<g id="SVGRepo_tracerCarrier" stroke-linecap="round" stroke-linejoin="round" stroke="#CCCCCC" stroke-width="6.280528"/>
<g id="SVGRepo_iconCarrier"> <path style="fill:#ffffff;" d="M107.184,199.952c-47.063,0-85.398,38.335-85.398,85.398c0,21.269,7.887,40.727,20.816,55.725 c13.446-22.303,37.689-36.461,64.517-36.461s51.135,14.158,64.582,36.461c12.929-14.998,20.816-34.392,20.816-55.661 C192.582,238.287,154.246,199.952,107.184,199.952z"/> <path style="fill:#ffffff;" d="M107.184,326.4c-20.493,0-38.917,11.572-47.903,29.608c13.705,9.374,30.19,14.739,47.903,14.739 c17.778,0,34.263-5.495,47.903-14.739C146.101,337.972,127.677,326.4,107.184,326.4z"/> <path style="fill:#000000;" d="M107.184,178.166C48.032,178.166,0,226.263,0,285.349s48.032,107.184,107.184,107.184 s107.184-48.032,107.184-107.184S166.271,178.166,107.184,178.166z M59.216,355.943c9.051-17.907,27.41-29.608,47.903-29.608 s38.917,11.572,47.903,29.608c-13.705,9.374-30.19,14.739-47.903,14.739C89.406,370.747,72.857,365.253,59.216,355.943z M107.184,304.614c-26.828,0-51.071,14.222-64.517,36.461c-12.929-14.998-20.816-34.392-20.816-55.725 c0-47.063,38.335-85.398,85.398-85.398s85.398,38.335,85.398,85.398c0,21.269-7.887,40.727-20.816,55.661 C158.255,318.772,134.012,304.614,107.184,304.614z"/> <path style="fill:#ffffff;" d="M107.184,241.131c-8.21,0-14.804,6.659-14.804,14.869s6.659,14.869,14.804,14.869 s14.804-6.659,14.804-14.869C121.988,247.855,115.394,241.131,107.184,241.131z"/> <path style="fill:#000000;" d="M107.184,219.345c-20.234,0-36.655,16.485-36.655,36.655s16.485,36.655,36.655,36.655 S143.838,276.17,143.838,256S127.354,219.345,107.184,219.345z M107.184,270.933c-8.21,0-14.804-6.659-14.804-14.869 c0-8.21,6.659-14.869,14.804-14.869s14.804,6.659,14.804,14.869C121.988,264.21,115.394,270.933,107.184,270.933z"/> <path style="fill:#ffffff;" d="M285.349,21.786c-47.063,0-85.398,38.335-85.398,85.398c0,21.269,7.887,40.727,20.816,55.661 c13.446-22.303,37.689-36.461,64.582-36.461c26.828,0,51.071,14.158,64.582,36.461c12.929-14.998,20.816-34.392,20.816-55.661 C370.747,60.121,332.412,21.786,285.349,21.786z"/> <path style="fill:#ffffff;" d="M333.317,177.713c-9.051-17.907-27.41-29.608-47.903-29.608c-20.493,0-38.917,11.572-47.903,29.608 c13.705,9.374,30.19,14.739,47.903,14.739C303.127,192.582,319.677,187.087,333.317,177.713z"/> <path style="fill:#000000;" d="M285.349,0c-59.087,0-107.184,48.032-107.184,107.184s48.097,107.184,107.184,107.184 s107.184-48.032,107.184-107.184S344.501,0,285.349,0z M285.349,148.234c20.493,0,38.917,11.572,47.903,29.608 c-13.705,9.374-30.19,14.739-47.903,14.739c-17.778,0-34.263-5.495-47.903-14.739C246.432,159.806,264.857,148.234,285.349,148.234z M285.349,126.319c-26.828,0-51.071,14.158-64.582,36.461c-12.929-14.998-20.816-34.392-20.816-55.661 c0-47.063,38.335-85.398,85.398-85.398s85.398,38.335,85.398,85.398c0,21.269-7.887,40.727-20.816,55.661 C336.485,140.541,312.178,126.319,285.349,126.319z"/> <path style="fill:#ffffff;" d="M285.349,62.966c-8.21,0-14.869,6.659-14.869,14.804c0,8.21,6.659,14.804,14.869,14.804 s14.869-6.659,14.869-14.804S293.56,62.966,285.349,62.966z"/> <g> <path style="fill:#000000;" d="M285.349,41.18c-20.234,0-36.655,16.485-36.655,36.655c0,20.234,16.485,36.655,36.655,36.655 c20.234,0,36.655-16.485,36.655-36.655S305.584,41.18,285.349,41.18z M285.349,92.638c-8.21,0-14.869-6.659-14.869-14.869 s6.659-14.804,14.869-14.804s14.869,6.659,14.869,14.804C300.218,85.98,293.56,92.638,285.349,92.638z"/> <path style="fill:#000000;" d="M55.014,160.323c6.012,0,10.925-4.848,10.925-10.925V65.939h83.523 c6.012,0,10.925-4.848,10.925-10.925c0-6.012-4.848-10.925-10.925-10.925H55.014c-6.012,0-10.925,4.848-10.925,10.925v94.513 C44.089,155.475,49.002,160.323,55.014,160.323z"/> <path style="fill:#000000;" d="M337.519,232.21c-6.012,0-10.925,4.848-10.925,10.925v83.523h-83.523 c-6.012,0-10.925,4.848-10.925,10.925c0,6.012,4.848,10.925,10.925,10.925h94.448c6.012,0,10.925-4.848,10.925-10.925v-94.513 C348.444,237.059,343.531,232.21,337.519,232.21z"/> </g> </g>
</svg>